<?xml version="1.0" encoding="UTF-8" standalone="no"?>
<!-- Created with Inkscape (http://www.inkscape.org/) -->

<svg
   width="100mm"
   height="100mm"
   viewBox="0 0 100 100"
   version="1.1"
   id="svg1"
   xml:space="preserve"
   inkscape:export-filename="icone.svg"
   inkscape:export-xdpi="96"
   inkscape:export-ydpi="96"
   xmlns:inkscape="http://www.inkscape.org/namespaces/inkscape"
   xmlns:sodipodi="http://sodipodi.sourceforge.net/DTD/sodipodi-0.dtd"
   xmlns="http://www.w3.org/2000/svg"
   xmlns:svg="http://www.w3.org/2000/svg"><sodipodi:namedview
     id="namedview1"
     pagecolor="#505050"
     bordercolor="#eeeeee"
     borderopacity="1"
     inkscape:showpageshadow="0"
     inkscape:pageopacity="0"
     inkscape:pagecheckerboard="0"
     inkscape:deskcolor="#505050"
     inkscape:document-units="mm"><inkscape:page
       x="0"
       y="0"
       width="100"
       height="100"
       id="page2"
       margin="0"
       bleed="0" /></sodipodi:namedview><defs
     id="defs1" /><g
     inkscape:label="Camada 1"
     inkscape:groupmode="layer"
     id="layer1"><path
       style="fill:white;stroke-width:0.984191"
       d="M 45.175661,99.838433 C 29.610748,98.231726 15.65989,89.560554 7.4568161,76.394243 0.27578813,64.868361 -1.8384989,50.681146 1.6362511,37.337296 5.7254871,21.633681 17.81872,8.5176104 33.20429,3.0992539 38.877888,1.1011755 44.283564,0.23055326 51.015996,0.23055326 c 4.112902,0 4.432361,0.035669 5.241662,0.5852494 C 57.541504,1.6876371 58.139062,2.6474588 58.26982,4.047812 58.36436,5.0603078 58.269204,5.4739522 57.77721,6.1891859 56.471594,8.0872136 56.269269,8.1461396 50.435957,8.327284 44.724328,8.5046497 42.825892,8.7429621 39.070791,9.753964 27.404707,12.894873 17.127198,21.434905 12.178855,32.099651 7.6951511,41.762998 6.9836861,52.8773 10.218146,62.729274 c 3.582786,10.912958 11.476198,19.868149 21.814521,24.748893 16.328015,7.708491 35.550974,4.135253 47.99311,-8.921145 6.1671,-6.471564 10.01514,-14.492887 11.17804,-23.300838 0.29667,-2.247061 0.20861,-8.815372 -0.1732,-12.919077 -0.27901,-2.998919 1.01924,-4.662392 3.78953,-4.855573 1.19773,-0.08352 1.60585,0.0049 2.3393,0.507097 0.48864,0.334548 1.10954,0.906255 1.37978,1.270458 1.11213,1.498862 1.813043,9.985797 1.27718,15.464683 -2.21357,22.632535 -19.117,40.807402 -41.468724,44.587879 -3.767572,0.637232 -9.774722,0.877469 -13.172022,0.526782 z m 3.258764,-21.07238 C 47.669492,78.445111 46.684782,77.568398 46.263467,76.833192 46.099502,76.547071 45.904981,74.976766 45.831196,73.343625 L 45.697042,70.37428 44.067855,70.043575 c -3.757016,-0.762628 -7.901946,-3.818957 -9.458994,-6.974737 -1.054984,-2.138211 -1.504183,-4.670612 -1.079406,-6.08524 0.840951,-2.800604 4.453014,-3.797204 6.682743,-1.843828 0.886125,0.776298 1.255037,1.579679 1.559905,3.397014 0.207943,1.239562 1.69603,2.593479 3.56359,3.242289 1.083044,0.37626 2.149235,0.487802 4.662742,0.487802 3.799148,0 5.477334,-0.444195 7.0566,-1.867795 1.178369,-1.062219 1.510721,-2.172265 0.919801,-3.072115 C 56.533541,55.132162 54.58258,54.37947 49.502278,54.058204 42.124622,53.591658 37.983807,51.631202 35.128732,47.253093 30.698624,40.459752 34.939804,32.122907 43.916585,29.978901 l 1.869211,-0.446441 0.08597,-3.057963 c 0.09306,-3.310078 0.293676,-3.846476 1.880854,-5.028839 1.009443,-0.751982 3.482192,-0.751982 4.491634,0 1.588612,1.183432 1.787764,1.71732 1.88118,5.043077 l 0.08629,3.072202 1.582722,0.335129 c 3.541808,0.749952 7.297146,3.223406 9.063241,5.969506 0.988649,1.537251 1.824939,4.054921 1.824939,5.494021 0,3.742179 -4.142205,5.738281 -6.897955,3.324081 -0.887839,-0.777799 -1.254555,-1.578271 -1.562444,-3.410517 -0.214133,-1.274305 -1.342753,-2.365289 -3.207614,-3.100649 -1.295093,-0.510687 -1.971233,-0.590247 -5.016179,-0.590247 -3.044946,0 -3.721086,0.07956 -5.016179,0.590247 -3.751995,1.479503 -4.355572,4.498697 -1.24776,6.241501 1.632835,0.915664 2.443482,1.079731 6.620826,1.339986 4.44249,0.276775 6.960596,0.867604 9.6034,2.25327 2.119844,1.111469 4.520302,3.551202 5.539889,5.630529 3.316644,6.76391 -0.902684,14.157738 -9.289641,16.27888 l -1.909141,0.48284 -0.130346,3.003401 c -0.139873,3.222942 -0.364705,3.812361 -1.886694,4.946163 -0.791773,0.589829 -2.893597,0.817565 -3.848363,0.416975 z M 69.146262,28.736984 c -1.067889,-0.464109 -2.144143,-1.788037 -2.351929,-2.893171 -0.418639,-2.226579 -0.362997,-2.302046 7.507914,-10.182799 l 7.32009,-7.3292374 -4.06278,-0.083921 c -3.62017,-0.074779 -4.14109,-0.1423466 -4.78166,-0.6202151 -1.36749,-1.0201439 -1.79388,-1.8509684 -1.79388,-3.4954243 0,-1.644788 0.4267,-2.4759401 1.79451,-3.49542434 0.69129,-0.5152573 1.09226,-0.5392083 10.22216,-0.6106017 10.62254,-0.083066 10.67715,-0.075284 12.04675,1.71635784 l 0.70218,0.9185635 v 9.8203575 c 0,9.51279 -0.0168,9.842853 -0.53749,10.538663 -1.02135,1.364948 -1.85456,1.790894 -3.50321,1.790894 -1.64813,0 -2.4808,-0.425435 -3.50321,-1.789881 -0.479,-0.639233 -0.54665,-1.15892 -0.62166,-4.77529 l -0.0841,-4.057995 -7.21516,7.185136 c -3.96833,3.951825 -7.54541,7.307699 -7.94903,7.457497 -0.98144,0.364241 -2.21969,0.327937 -3.189415,-0.09351 z"
       id="path1" /></g></svg>
