<?xml version="1.0" encoding="UTF-8" standalone="no"?>
<!-- Created with Inkscape (http://www.inkscape.org/) -->

<svg
   width="80mm"
   height="100mm"
   viewBox="0 0 80 100"
   version="1.1"
   id="svg1"
   xml:space="preserve"
   inkscape:export-filename="despesa.svg"
   inkscape:export-xdpi="96"
   inkscape:export-ydpi="96"
   xmlns:inkscape="http://www.inkscape.org/namespaces/inkscape"
   xmlns:sodipodi="http://sodipodi.sourceforge.net/DTD/sodipodi-0.dtd"
   xmlns="http://www.w3.org/2000/svg"
   xmlns:svg="http://www.w3.org/2000/svg"><sodipodi:namedview
     id="namedview1"
     pagecolor="#505050"
     bordercolor="#eeeeee"
     borderopacity="1"
     inkscape:showpageshadow="0"
     inkscape:pageopacity="0"
     inkscape:pagecheckerboard="0"
     inkscape:deskcolor="#505050"
     inkscape:document-units="mm"><inkscape:page
       x="0"
       y="0"
       width="80"
       height="100"
       id="page2"
       margin="0"
       bleed="0" /></sodipodi:namedview><defs
     id="defs1" /><g
     inkscape:label="Camada 1"
     inkscape:groupmode="layer"
     id="layer1"><path
       style="fill:white;stroke-width:0.73413"
       d="M 38.797355,99.999997 C 32.847314,99.309747 28.847074,98.163708 24.356654,95.862862 14.695564,90.912618 7.3531693,81.615106 4.6362322,70.891335 4.3256532,69.665479 3.9259692,67.695563 3.7480462,66.513745 3.3269731,63.716867 3.3168351,58.439051 3.7270982,55.608381 5.6222332,42.532638 13.705943,31.352926 25.319364,25.746439 c 1.81952,-0.878391 5.45665,-2.207219 7.17221,-2.620372 l 1.01086,-0.24344 v -4.683238 -4.683238 h 3.273211 3.27323 v -1.550136 c 0,-7.425907 -7.969021,-11.44373661 -13.643631,-6.8788582 -1.95475,1.5724798 -2.840567,3.4717076 -3.117572,6.6841832 -0.328068,3.804582 -1.503868,6.484808 -3.76918,8.591806 -2.150368,2.000094 -4.354334,2.934804 -7.292033,3.092581 C 8.7510774,23.642382 5.9248403,22.528457 3.4592891,20.000261 1.146003,17.628198 0,14.820595 0,11.525314 V 9.9890644 h 1.6142181 1.614218 l 0.0755,1.9127826 c 0.06741,1.708232 0.149515,2.0697 0.7676931,3.380125 1.075014,2.278838 2.7947691,3.816662 5.1422232,4.598233 1.6468206,0.548299 4.1848946,0.361195 5.8474846,-0.431069 2.980271,-1.420171 4.956824,-4.470696 4.966447,-7.664999 0.0084,-2.8207046 1.303808,-6.1742869 3.133177,-8.1119061 1.203863,-1.2751029 2.997113,-2.5053374 4.537113,-3.11263021 1.53091,-0.6037117 5.44026,-0.7554958 7.07573,-0.2747218 3.261481,0.95876881 5.818791,3.14124741 7.269991,6.20442111 0.95711,2.020243 1.2783,3.4256494 1.2783,5.593219 v 1.433632 h 3.36951 3.36949 v 4.695229 4.69523 l 0.8183,0.208446 c 4.91054,1.250849 10.219281,3.861016 14.296301,7.029101 1.63011,1.266683 4.93556,4.564202 6.29026,6.27514 4.26347,5.384655 7.12524,11.933764 8.27273,18.932021 0.38822,2.367726 0.33271,9.496132 -0.0924,11.85493 -0.87122,4.834986 -2.4488,9.368891 -4.57584,13.150764 -6.32623,11.248085 -17.527551,18.505635 -30.304351,19.634765 -0.18784,-0.0422 -5.96881,0.008 -5.96881,0.008 z m 4.7173,-21.918568 v -1.665563 h 1.91593 c 2.31992,0 3.5932,-0.255142 5.08784,-1.019504 2.27629,-1.16409 3.93912,-3.518881 4.39489,-6.22378 0.44264,-2.626951 -0.36386,-5.224749 -2.24525,-7.232079 -2.30664,-2.461064 -3.52219,-2.759433 -11.27139,-2.766686 -5.56611,-0.0052 -5.69931,-0.0146 -6.642721,-0.468493 -1.80093,-0.866453 -2.78029,-2.467192 -2.78765,-4.556313 -0.008,-2.209427 1.47416,-4.161247 3.619951,-4.767775 0.42762,-0.120872 3.77733,-0.200567 8.45789,-0.201227 l 7.74983,-0.0011 v -1.763543 -1.763544 h -4.13966 -4.13966 v -1.665569 -1.665568 h -1.82917 -1.82915 v 1.642872 1.642871 l -2.55168,0.07589 c -2.457991,0.0731 -2.605121,0.10172 -4.007851,0.779661 -2.60064,1.256885 -4.33292,3.578875 -4.80574,6.441712 -0.59594,3.608244 1.40815,7.4695 4.67954,9.016021 1.753381,0.828892 3.097791,0.972052 9.188781,0.978472 6.11375,0.0064 6.34916,0.04915 7.68339,1.393898 2.48977,2.509413 1.68766,6.580437 -1.61829,8.2134 -0.47157,0.232924 -2.07145,0.296119 -8.71256,0.344147 l -8.134921,0.05883 v 1.753704 1.7537 h 4.139671 4.13966 V 77.9508 c 0,0.844212 0.0578,1.593717 0.12835,1.665562 0.0706,0.07184 0.89373,0.130634 1.82917,0.130634 h 1.7008 z"
       id="path1"
       sodipodi:nodetypes="csssssscccccssssssscccsssssssssscccccssssssccccsssscsssscccccccccccsssssssscccccsssccc" /></g></svg>
