<?xml version="1.0" encoding="UTF-8" standalone="no"?>
<!-- Created with Inkscape (http://www.inkscape.org/) -->

<svg
   width="100mm"
   height="100mm"
   viewBox="0 0 100 100"
   version="1.1"
   id="svg1"
   xml:space="preserve"
   inkscape:export-filename="divida.svg"
   inkscape:export-xdpi="96"
   inkscape:export-ydpi="96"
   xmlns:inkscape="http://www.inkscape.org/namespaces/inkscape"
   xmlns:sodipodi="http://sodipodi.sourceforge.net/DTD/sodipodi-0.dtd"
   xmlns="http://www.w3.org/2000/svg"
   xmlns:svg="http://www.w3.org/2000/svg"><sodipodi:namedview
     id="namedview1"
     pagecolor="#505050"
     bordercolor="#eeeeee"
     borderopacity="1"
     inkscape:showpageshadow="0"
     inkscape:pageopacity="0"
     inkscape:pagecheckerboard="0"
     inkscape:deskcolor="#505050"
     inkscape:document-units="mm"><inkscape:page
       x="0"
       y="0"
       width="100"
       height="100"
       id="page2"
       margin="0"
       bleed="0" /></sodipodi:namedview><defs
     id="defs1" /><g
     inkscape:label="Camada 1"
     inkscape:groupmode="layer"
     id="layer1"><path
       style="fill:white;fill-opacity:1;stroke:none;stroke-width:0.162214"
       d="M 46.518902,99.823026 C 34.45238,98.327826 26.741454,95.283923 18.494867,88.760492 16.69944,87.340229 12.16148,82.954396 11.822338,82.311652 11.69477,82.069877 11.270302,81.542159 10.879083,81.138938 10.074906,80.310099 7.2598237,76.117443 6.0310648,73.918515 4.5338794,71.239233 3.5647545,69.183073 2.8882008,67.250423 2.1105524,65.028988 0.33341594,58.210717 0.13011269,56.668582 -0.04582354,55.33404 -0.04230768,44.090418 0.1344108,42.901032 0.4418633,40.831807 2.0923994,34.675437 2.9829984,32.276025 3.7909322,30.099317 5.7867635,26.004131 7.0011124,24.031388 11.015191,17.510391 15.952429,12.380647 22.231398,8.2072523 24.684231,6.5769468 31.686246,3.0345888 33.847157,2.3307716 38.260031,0.89348859 42.970806,0.17525965 48.955768,0.02723706 c 5.494766,-0.13589664 8.775563,0.21713587 13.971404,1.50339794 3.848583,0.9527432 4.904739,1.3368999 8.210757,2.986528 4.982072,2.4859333 7.291851,3.909784 9.917637,6.11367 5.764029,4.837886 10.547106,10.450475 13.024139,15.282867 1.767463,3.448101 3.159938,6.630362 3.74858,8.566728 0.693721,2.282037 1.663458,6.586069 1.879731,8.342897 0.477724,3.880705 0.347964,12.540936 -0.234151,15.626941 -0.389626,2.065551 -1.485004,6.327104 -1.92357,7.483619 -2.29697,6.057224 -4.78441,10.588119 -8.092938,14.741385 -1.577534,1.980307 -4.823848,5.325979 -6.902468,7.113722 -2.028255,1.744432 -5.010198,3.960467 -5.900001,4.384606 -0.402084,0.19166 -0.789829,0.445333 -0.861662,0.563715 -0.208082,0.342965 -6.855036,3.533839 -8.642141,4.148671 -3.932701,1.353003 -6.7628,1.987718 -11.696989,2.623351 -4.18066,0.538565 -6.47145,0.618985 -8.935201,0.313691 z M 44.488175,71.351414 c 0,-2.881795 0.04728,-5.797277 0.105071,-6.478847 l 0.10507,-1.239223 h 5.824656 5.824655 v 6.478848 6.478847 h 9.01643 9.016428 V 64.605171 52.619303 l 2.396258,-0.0026 c 1.344232,-0.0013 2.503243,-0.07449 2.639946,-0.166499 C 79.612573,52.318367 76.856055,49.507327 65.364052,38.119638 57.501075,30.328034 50.90242,23.907903 50.700371,23.852685 c -0.272507,-0.07448 -0.545161,0.04706 -1.055979,0.470747 -1.400109,1.161268 -27.366713,26.447663 -28.076034,27.340565 -0.424633,0.534537 -0.481588,0.6892 -0.29675,0.805862 0.125804,0.0794 1.343604,0.145488 2.706222,0.146852 l 2.477487,0.0026 6.5e-4,9.596793 c 6.49e-4,11.386821 0.09249,14.166944 0.471113,14.268085 0.142644,0.0381 4.152258,0.07773 8.910251,0.08807 l 8.650844,0.01879 z M 70.356696,36.339241 c 0.06539,-0.533429 0.07285,-3.176024 0.01654,-5.872434 -0.100428,-4.810816 -0.108742,-4.90392 -0.443815,-4.974974 -0.187809,-0.03982 -1.785319,-0.09317 -3.550027,-0.118542 l -3.208562,-0.04613 1.3e-5,2.968136 1e-5,2.968134 2.562569,2.480573 c 4.289439,4.152193 4.423187,4.227269 4.623262,2.595241 z"
       id="path2" /></g></svg>
