<?xml version="1.0" encoding="UTF-8" standalone="no"?>
<!-- Created with Inkscape (http://www.inkscape.org/) -->

<svg
   width="100mm"
   height="100mm"
   viewBox="0 0 100 100"
   version="1.1"
   id="svg1"
   xml:space="preserve"
   inkscape:export-filename="icone.svg"
   inkscape:export-xdpi="96"
   inkscape:export-ydpi="96"
   xmlns:inkscape="http://www.inkscape.org/namespaces/inkscape"
   xmlns:sodipodi="http://sodipodi.sourceforge.net/DTD/sodipodi-0.dtd"
   xmlns="http://www.w3.org/2000/svg"
   xmlns:svg="http://www.w3.org/2000/svg"><sodipodi:namedview
     id="namedview1"
     pagecolor="#505050"
     bordercolor="#eeeeee"
     borderopacity="1"
     inkscape:showpageshadow="0"
     inkscape:pageopacity="0"
     inkscape:pagecheckerboard="0"
     inkscape:deskcolor="#505050"
     inkscape:document-units="mm"><inkscape:page
       x="0"
       y="0"
       width="100"
       height="100"
       id="page2"
       margin="0"
       bleed="0" /></sodipodi:namedview><defs
     id="defs1" /><g
     inkscape:label="Camada 1"
     inkscape:groupmode="layer"
     id="layer1"><path
       style="fill:#0000cc;fill-opacity:1;stroke:none;stroke-width:0.426012"
       d="M 47.691348,99.897652 C 37.54549,99.371292 27.667835,95.787124 19.688662,89.736734 c -3.659657,-2.77503 -7.261859,-6.41474 -9.8969765,-10 -7.410907,-10.08305 -10.755964,-22.31152 -9.551338,-34.91662 1.29484,-13.54906 8.562873,-26.41172 19.6772075,-34.8238638 7.058134,-5.3421174 14.855958,-8.5286424 23.82443,-9.73572539 1.68451,-0.22671304 2.393444,-0.25821804 5.861538,-0.26046403735 3.09875,-0.0019000026 4.29598,0.04024999735 5.57974,0.19717299735 9.63457,1.17745903 17.65614,4.33517503 24.96789,9.82873323 9.06071,6.807586 15.51801,16.590027 18.30193,27.726377 2.649677,10.59928 1.878857,21.63367 -2.1849,31.27697 -6.5851,15.6265 -20.52206,27.02177 -36.85785,30.13604 -1.97082,0.375718 -3.98408,0.608548 -6.42515,0.743028 -2.25694,0.124348 -2.7075,0.123448 -5.293835,-0.0109 z m 6.139245,-16.762358 v -4.60384 l 1.86668,-0.52514 c 3.2163,-0.90483 5.18773,-1.74969 7.20744,-3.08875 3.73601,-2.47695 6.12803,-5.95757 7.0521,-10.26151 0.30242,-1.40857 0.41966,-4.61267 0.22526,-6.15692 -0.39306,-3.12237 -1.59718,-5.6523 -3.77391,-7.92926 -2.6913,-2.81522 -5.31175,-4.3548 -11.54501,-6.78298 -5.09869,-1.98622 -7.108479,-2.96864 -9.014527,-4.40648 -1.604381,-1.21027 -2.247346,-2.39422 -2.137081,-3.93521 0.07577,-1.05962 0.519338,-1.98593 1.312012,-2.74019 1.287096,-1.22472 2.059341,-1.51854 4.523616,-1.72105 4.70273,-0.38645 6.35618,-0.16739 12.80884,1.69706 1.39337,0.4026 2.59547,0.73199 2.67136,0.73199 0.0876,0 0.60128,-1.82028 1.40737,-4.98741 0.69818,-2.74308 1.26744,-5.02672 1.26502,-5.07478 -0.007,-0.12695 -1.57305,-0.823 -2.87878,-1.27898 -2.31737,-0.80926 -4.95407,-1.36061 -8.00326,-1.67348 -0.99195,-0.10179 -1.96841,-0.20987 -2.16989,-0.24019 l -0.36635,-0.0551 v -3.93762 -3.937591 l -0.25363,-0.06168 c -0.13949,-0.03388 -2.18116,-0.04755 -4.53705,-0.03032 l -4.283429,0.03135 -0.05634,4.076816 c -0.06578,4.756885 0.02176,4.449215 -1.387817,4.877235 -6.069758,1.84312 -9.275477,3.91784 -11.667347,7.55106 -1.844242,2.80139 -2.773337,5.76396 -2.759238,8.79823 0.02033,4.36611 2.148734,8.59921 5.779381,11.4942 2.299791,1.8338 4.008198,2.70863 9.865939,5.05212 5.916441,2.36696 6.840981,2.76088 7.760221,3.30633 3.38355,2.00772 4.29487,6.05204 1.91125,8.48178 -1.06681,1.08747 -2.2526,1.6656 -4.33861,2.11535 -1.584181,0.34155 -5.369954,0.37126 -7.237711,0.0569 -2.802547,-0.47181 -4.86233,-1.08362 -8.957631,-2.66066 -1.324584,-0.51006 -2.449059,-0.88507 -2.498826,-0.83332 -0.04975,0.0518 -0.647327,2.32368 -1.327901,5.04875 -1.294862,5.18474 -1.299725,5.21765 -0.844563,5.72055 0.18159,0.20064 3.469015,1.53419 5.05063,2.04882 1.385377,0.45076 3.590655,0.91751 6.973047,1.47581 1.695302,0.27983 3.115198,0.50877 3.155321,0.50877 0.0402,0 0.07292,1.86816 0.07292,4.15149 0,2.28329 0.0338,4.18527 0.07511,4.22661 0.0413,0.0413 2.095687,0.0751 4.565244,0.0751 h 4.49008 z"
       id="path1" /></g></svg>
