<?xml version="1.0" encoding="UTF-8" standalone="no"?>
<!-- Created with Inkscape (http://www.inkscape.org/) -->

<svg
   width="210mm"
   height="297mm"
   viewBox="0 0 210 297"
   version="1.1"
   id="svg1"
   xml:space="preserve"
   xmlns:inkscape="http://www.inkscape.org/namespaces/inkscape"
   xmlns:sodipodi="http://sodipodi.sourceforge.net/DTD/sodipodi-0.dtd"
   xmlns="http://www.w3.org/2000/svg"
   xmlns:svg="http://www.w3.org/2000/svg"><sodipodi:namedview
     id="namedview1"
     pagecolor="#505050"
     bordercolor="#eeeeee"
     borderopacity="1"
     inkscape:showpageshadow="0"
     inkscape:pageopacity="0"
     inkscape:pagecheckerboard="0"
     inkscape:deskcolor="#505050"
     inkscape:document-units="mm"><inkscape:page
       x="0"
       y="0"
       width="210"
       height="297"
       id="page2"
       margin="0"
       bleed="0" /></sodipodi:namedview><defs
     id="defs1" /><g
     inkscape:label="Camada 1"
     inkscape:groupmode="layer"
     id="layer1"><path
       style="fill:#000000"
       d="m 93.85108,136.71133 c -3.700053,-1.15822 -5.931619,-4.04938 -6.006647,-7.78205 -0.05291,-2.63235 0.627552,-4.34109 2.457416,-6.17096 1.650361,-1.65036 3.290631,-2.34124 5.558571,-2.34124 2.27651,0 3.90942,0.68996 5.53479,2.33863 2.08623,2.11614 2.42913,3.19193 2.59921,8.15463 0.15094,4.40401 0.0466,5.23303 -0.70962,5.63774 -0.69932,0.37426 -1.30572,0.0817 -1.68249,-0.8118 l -0.31793,-0.75395 -1.13501,0.7675 c -1.82752,1.23578 -4.24372,1.60464 -6.29829,0.9615 z m 3.19961,-2.29884 c 1.40583,-0.35399 3.13971,-1.78105 3.84594,-3.16538 0.74444,-1.45922 0.70252,-3.78647 -0.0954,-5.29831 -2.81087,-5.32563 -10.49703,-3.30145 -10.49703,2.76444 0,2.56245 1.63575,4.86818 3.96251,5.5855 1.50791,0.46488 1.40607,0.46072 2.78401,0.11375 z m 34.52848,2.32624 c -2.40374,-0.69079 -3.97538,-2.07497 -5.31378,-4.67998 -0.91442,-1.77979 -0.89127,-4.88681 0.0514,-6.89678 0.81709,-1.74221 2.21344,-3.1756 3.90579,-4.0094 0.98346,-0.48454 1.6667,-0.60319 3.47326,-0.60319 2.4984,0 3.4486,0.33587 5.20611,1.84023 1.62562,1.39147 2.55949,3.3553 2.58109,5.42777 l 0.018,1.72783 -6.70825,0.0708 -6.70826,0.0707 0.17592,0.72301 c 0.30471,1.25224 1.41003,2.65189 2.68368,3.3983 2.24165,1.3137 5.39338,0.7774 7.0486,-1.19938 0.51401,-0.61387 1.25492,-0.71307 1.73561,-0.23238 0.57137,0.57138 0.33497,1.41017 -0.67469,2.39387 -1.90918,1.8601 -5.01013,2.67682 -7.47448,1.96861 z m 7.40765,-9.84115 c -0.58425,-1.53669 -1.12497,-2.26806 -2.24819,-3.04085 -2.14363,-1.47486 -4.74158,-1.34458 -6.65295,0.33362 -0.86236,0.75717 -1.94609,2.4809 -1.94609,3.09536 0,0.1817 1.88454,0.27512 5.5497,0.27512 h 5.5497 z m 29.63281,9.83091 c -3.52004,-0.94991 -5.91392,-4.2301 -5.91819,-8.10932 -0.003,-2.64357 0.73023,-4.31946 2.66195,-6.08494 2.82508,-2.58197 7.14787,-2.8586 10.0523,-0.64328 l 0.87806,0.66973 v -3.14746 c 0,-2.81356 0.0562,-3.19836 0.53024,-3.62732 0.76898,-0.69591 1.77426,-0.19318 1.96161,0.98099 0.11418,0.71556 0.0468,18.1128 -0.0743,19.18516 -0.0525,0.46519 -0.98157,0.89598 -1.50176,0.69636 -0.24501,-0.094 -0.58551,-0.50401 -0.75668,-0.9111 l -0.31122,-0.74017 -1.19378,0.77655 c -1.11137,0.72293 -3.27859,1.33576 -4.5772,1.29429 -0.30756,-0.01 -1.09552,-0.16259 -1.75103,-0.33949 z m 4.48682,-2.81551 c 4.30415,-2.21479 4.25111,-8.4582 -0.089,-10.47907 -2.13014,-0.99185 -4.01183,-0.76205 -5.79333,0.70749 -1.42319,1.17398 -2.12723,2.68625 -2.1114,4.53524 0.0378,4.41203 4.24273,7.1665 7.99375,5.23634 z m 15.81705,2.89932 c -3.60625,-0.90155 -5.99735,-3.84907 -6.21718,-7.66397 -0.27367,-4.74913 2.85416,-8.38326 7.46029,-8.66789 3.43425,-0.21221 6.31224,1.51559 7.78821,4.67565 0.64706,1.38536 0.6966,1.7731 0.78471,6.14246 0.092,4.56313 0.0814,4.67259 -0.49061,5.07327 -0.93987,0.65831 -1.83499,0.11523 -1.84278,-1.11804 l -0.004,-0.64144 -0.59861,0.56237 c -1.45648,1.36828 -4.7866,2.16093 -6.87998,1.63759 z m 4.30359,-2.99737 c 1.41002,-0.69603 2.77491,-2.55235 3.04289,-4.13851 0.61883,-3.66286 -2.7179,-7.27526 -6.27889,-6.79763 -1.55311,0.20832 -3.26996,1.35975 -4.07454,2.73266 -2.06854,3.5297 -0.23555,7.86785 3.73866,8.84832 1.05688,0.26074 2.12972,0.0671 3.57188,-0.64484 z m -174.835711,2.59094 -0.583042,-0.40837 v -9.88798 c 0,-8.63629 0.05263,-9.9406 0.415774,-10.30374 0.433779,-0.43378 1.100424,-0.52806 1.809606,-0.25592 0.229117,0.0879 2.396775,2.95443 4.817018,6.37003 2.420243,3.41561 4.487474,6.11187 4.593846,5.99171 0.106372,-0.12016 1.300402,-1.79605 2.653401,-3.7242 2.169406,-3.09161 2.548386,-3.50573 3.20826,-3.50573 0.571234,0 0.786347,0.15173 0.909234,0.64135 0.130916,0.52162 -0.433466,1.47854 -3.022912,5.12541 -3.087943,4.34893 -3.640505,4.94383 -4.337873,4.67019 -0.181901,-0.0714 -1.640416,-1.98773 -3.241145,-4.25856 -1.60073,-2.27083 -3.446198,-4.85784 -4.101042,-5.7489 l -1.190625,-1.62012 -0.132292,8.30232 c -0.12741,7.99601 -0.152268,8.31558 -0.673729,8.66161 -0.461622,0.30632 -0.627386,0.29908 -1.124479,-0.0491 z m 20.319042,-0.11379 c -0.509837,-0.50983 -0.529167,-0.88194 -0.529167,-10.18645 0,-9.30452 0.01933,-9.67663 0.529167,-10.18646 0.686928,-0.68693 1.194691,-0.6694 1.704788,0.0589 0.354407,0.50599 0.411878,1.92736 0.411878,10.18646 0,9.24564 -0.01945,9.61787 -0.529166,10.12758 -0.291042,0.29105 -0.64823,0.52917 -0.79375,0.52917 -0.145521,0 -0.502709,-0.23812 -0.79375,-0.52917 z m 7.260465,0.15397 c -0.482077,-0.35218 -0.518427,-0.80029 -0.592418,-7.30313 -0.06842,-6.01355 -0.02257,-7.01379 0.34745,-7.57851 0.279131,-0.426 0.623716,-0.62215 0.998247,-0.56822 1.145122,0.16488 1.257022,0.94406 1.183374,8.23996 -0.06477,6.41677 -0.100398,6.85764 -0.582584,7.2099 -0.282475,0.20636 -0.58714,0.3752 -0.677034,0.3752 -0.08989,0 -0.39456,-0.16884 -0.677035,-0.3752 z m 6.35,-0.001 c -0.478063,-0.35025 -0.513204,-0.73002 -0.507999,-5.49011 0.0053,-4.82343 0.04081,-5.18536 0.625817,-6.37351 0.770291,-1.56446 2.808966,-3.43268 4.20099,-3.84974 3.427345,-1.02686 6.832753,0.37543 8.475921,3.49024 0.695361,1.31813 0.716906,1.49476 0.800375,6.56116 l 0.08578,5.20656 -0.64381,0.42184 c -0.769805,0.50439 -1.470005,0.29987 -1.640772,-0.47925 -0.06825,-0.31137 -0.156516,-2.66028 -0.196154,-5.2198 -0.07183,-4.63825 -0.07458,-4.65729 -0.82921,-5.74538 -0.845467,-1.21907 -2.524628,-2.16866 -3.834852,-2.16866 -1.627862,0 -3.662021,1.43159 -4.253925,2.99379 -0.160617,0.42392 -0.282208,2.73236 -0.282208,5.35781 0,4.26021 -0.04047,4.65346 -0.529167,5.14215 -0.629559,0.62956 -0.796479,0.64692 -1.470784,0.1529 z m 18.457993,-0.0391 -0.583042,-0.40837 v -9.88798 c 0,-8.63629 0.05263,-9.9406 0.415774,-10.30374 0.527736,-0.52774 1.021966,-0.52774 1.549702,0 0.326522,0.32652 0.415774,1.02769 0.415774,3.26637 v 2.85059 l 1.492494,-0.75283 c 1.660078,-0.83736 3.597078,-0.99316 5.449066,-0.43829 1.489231,0.44619 3.447107,2.30414 4.191046,3.97716 0.578839,1.30173 0.621825,1.73605 0.631244,6.37808 0.0094,4.63162 -0.02594,5.00767 -0.503482,5.35781 -0.635972,0.46631 -0.717394,0.46642 -1.354069,0.002 -0.469298,-0.34253 -0.525,-0.81787 -0.645882,-5.51169 -0.132188,-5.13279 -0.132876,-5.13759 -0.875224,-6.10987 -0.875756,-1.14701 -2.464566,-2.0265 -3.660909,-2.0265 -1.332557,0 -3.084013,0.99009 -3.881846,2.19438 -0.69305,1.04612 -0.713331,1.19268 -0.842438,6.08797 -0.123496,4.68254 -0.168292,5.03991 -0.673729,5.37481 -0.46132,0.30567 -0.627712,0.29833 -1.124479,-0.0496 z m 37.547331,-0.0165 c -0.53514,-0.37482 -0.55954,-0.60389 -0.55954,-5.2528 0,-4.06622 0.068,-4.92887 0.41577,-5.27667 0.34563,-0.34562 1.18267,-0.41594 4.96094,-0.41676 4.0384,-8.8e-4 4.63944,-0.0585 5.39069,-0.51654 2.62836,-1.60261 2.45255,-5.28582 -0.31631,-6.6262 -0.95764,-0.46358 -1.63386,-0.52919 -5.45463,-0.52919 -4.46913,0 -4.99646,-0.11295 -4.99646,-1.07024 0,-0.23939 0.22854,-0.64207 0.50787,-0.89486 0.45058,-0.40777 1.04008,-0.44971 5.22552,-0.37174 4.62974,0.0863 4.74333,0.10211 6.09573,0.85156 4.48831,2.48724 4.26949,8.78867 -0.3834,11.0411 -1.08814,0.52676 -1.76643,0.62109 -5.15867,0.71746 l -3.9058,0.11096 -0.004,3.86986 c -0.002,2.12842 -0.0915,3.99761 -0.19844,4.15374 -0.35402,0.51702 -1.05192,0.60767 -1.61922,0.21032 z m 12.08027,-0.0274 c -0.67089,-0.7572 -3.11481,-5.02872 -3.11481,-5.44412 0,-0.56708 0.68152,-1.02817 1.3745,-0.92993 0.45058,0.0639 1.00568,0.74297 2.12526,2.6 0.83347,1.38245 1.51625,2.69213 1.5173,2.91041 0.005,1.02897 -1.25067,1.59904 -1.90225,0.86364 z m 25.06315,0.0244 c -0.38058,-0.38058 -0.42421,-1.09868 -0.34963,-5.75469 0.0718,-4.48008 0.15908,-5.45502 0.55318,-6.17617 2.89638,-5.30001 9.90214,-5.41128 12.71824,-0.20201 0.52344,0.96828 0.57947,1.51891 0.65841,6.47112 0.0786,4.92899 0.0445,5.44335 -0.3813,5.75469 -0.6257,0.45752 -0.80334,0.43417 -1.42478,-0.18727 -0.48896,-0.48896 -0.52916,-0.88194 -0.52916,-5.17251 0,-4.81889 -0.13006,-5.50801 -1.28868,-6.82804 -0.65729,-0.74886 -2.29262,-1.49387 -3.26485,-1.48738 -1.42322,0.01 -3.00561,0.89204 -3.82949,2.13582 -0.74153,1.11945 -0.74547,1.14843 -0.8197,6.04004 -0.0699,4.60367 -0.10945,4.94455 -0.62462,5.37822 -0.68063,0.57296 -0.8691,0.5767 -1.41762,0.0282 z m -99.821171,-17.9687 c -1.402027,-0.98202 -0.295678,-3.29644 1.375299,-2.87705 1.78771,0.44868 1.463145,3.28892 -0.375837,3.28892 -0.226284,0 -0.676041,-0.18534 -0.999462,-0.41187 z"
       id="path1" /></g></svg>
